#define battery_width 8
#define battery_height 8
static char battery_bits[] = {
  0x18, 0x7E, 0x42, 0x5A, 0x5A, 0x5A, 0x42, 0x7E, };
