#define battery.2x_width 16
#define battery.2x_height 16
static char battery.2x_bits[] = {
  0xC0, 0x03, 0xC0, 0x03, 0xFC, 0x3F, 0xFC, 0x3F, 0x0C, 0x30, 0x0C, 0x30, 
  0xCC, 0x33, 0xCC, 0x33, 0xCC, 0x33, 0xCC, 0x33, 0xCC, 0x33, 0xCC, 0x33, 
  0x0C, 0x30, 0x0C, 0x30, 0xFC, 0x3F, 0xFC, 0x3F, };
