#define cpu.2x_width 16
#define cpu.2x_height 16
static char cpu.2x_bits[] = {
  0xCF, 0xF3, 0xCF, 0xF3, 0x03, 0xC0, 0x03, 0xC0, 0xF0, 0x0F, 0xF0, 0x0F, 
  0xF3, 0xCF, 0xF3, 0xCF, 0xF3, 0xCF, 0xF3, 0xCF, 0xF0, 0x0F, 0xF0, 0x0F, 
  0x03, 0xC0, 0x03, 0xC0, 0xCF, 0xF3, 0xCF, 0xF3, };
