/* XPM */
static char *cpu_2x_xbm[] = {
/* columns rows colors chars-per-pixel */
"16 16 2 1 ",
"  c None",
". c #b48ead",
/* pixels */
"....  ....  ....",
"....  ....  ....",
"..            ..",
"..            ..",
"    ........    ",
"    ........    ",
"..  ........  ..",
"..  ........  ..",
"..  ........  ..",
"..  ........  ..",
"    ........    ",
"    ........    ",
"..            ..",
"..            ..",
"....  ....  ....",
"....  ....  ...."
};
