/* XPM */
static char *mem_2x_xbm[] = {
/* columns rows colors chars-per-pixel */
"16 16 2 1 ",
"  c None",
". c #8fa1b3",
/* pixels */
"  ..  ..  ..  ..",
"  ..  ..  ..  ..",
"                ",
"                ",
"  ..............",
"  ..............",
"  ..............",
"  ..............",
"  ..............",
"  ..............",
"  ..............",
"  ..............",
"                ",
"                ",
"  ..  ..  ..  ..",
"  ..  ..  ..  .."
};
