#define net_down.2x_width 16
#define net_down.2x_height 16
static char net_down.2x_bits[] = {
  0xC0, 0x0F, 0xC0, 0x0F, 0xC0, 0x0F, 0xC0, 0x0F, 0xC0, 0x0F, 0xC0, 0x0F, 
  0xC0, 0x0F, 0xC0, 0x0F, 0xFC, 0xFF, 0xFC, 0xFF, 0xF0, 0x3F, 0xF0, 0x3F, 
  0xC0, 0x0F, 0xC0, 0x0F, 0x00, 0x03, 0x00, 0x03, };
