/* XPM */
static char *net_down_2x_xbm[] = {
/* columns rows colors chars-per-pixel */
"16 16 2 1 ",
"  c None",
". c #bf6a6a",
/* pixels */
"      ......    ",
"      ......    ",
"      ......    ",
"      ......    ",
"      ......    ",
"      ......    ",
"      ......    ",
"      ......    ",
"  ..............",
"  ..............",
"    ..........  ",
"    ..........  ",
"      ......    ",
"      ......    ",
"        ..      ",
"        ..      "
};
