#define net_up.2x_width 16
#define net_up.2x_height 16
static char net_up.2x_bits[] = {
  0x00, 0x03, 0x00, 0x03, 0xC0, 0x0F, 0xC0, 0x0F, 0xF0, 0x3F, 0xF0, 0x3F, 
  0xFC, 0xFF, 0xFC, 0xFF, 0xC0, 0x0F, 0xC0, 0x0F, 0xC0, 0x0F, 0xC0, 0x0F, 
  0xC0, 0x0F, 0xC0, 0x0F, 0xC0, 0x0F, 0xC0, 0x0F, };
