/* XPM */
static char *temp_2x_xbm[] = {
/* columns rows colors chars-per-pixel */
"16 16 2 1 ",
"  c None",
". c white",
/* pixels */
"      ..    ....",
"      ..    ....",
"          ......",
"          ......",
"  ..    ......  ",
"  ..    ......  ",
"      ..  ..    ",
"      ..  ..    ",
"  ....  ..      ",
"  ....  ..      ",
"..    ..        ",
"..    ..        ",
"..    ..        ",
"..    ..        ",
"  ....          ",
"  ....          "
};
