/* XPM */
static char *temp_xbm[] = {
/* columns rows colors chars-per-pixel */
"8 8 2 1 ",
"  c None",
". c #ebcb8b",
/* pixels */
"   .  ..",
"     ...",
" .  ... ",
"   . .  ",
" .. .   ",
".  .    ",
".  .    ",
" ..     "
};
