#define volume4.2x_width 16
#define volume4.2x_height 16
static char volume4.2x_bits[] = {
  0x00, 0x00, 0x00, 0x00, 0x00, 0x01, 0x80, 0x01, 0xC0, 0x09, 0xFC, 0x11, 
  0xFC, 0x11, 0xFC, 0x15, 0xFC, 0x15, 0xFC, 0x11, 0xFC, 0x11, 0xC0, 0x09, 
  0x80, 0x01, 0x00, 0x01, 0x00, 0x00, 0x00, 0x00, };
