#define volume2.2x_width 16
#define volume2.2x_height 16
static char volume2.2x_bits[] = {
  0x00, 0x00, 0x00, 0x00, 0x00, 0x01, 0x80, 0x01, 0xC0, 0x01, 0xFC, 0x01, 
  0xFC, 0x09, 0xFC, 0x11, 0xFC, 0x11, 0xFC, 0x09, 0xFC, 0x01, 0xC0, 0x01, 
  0x80, 0x01, 0x00, 0x01, 0x00, 0x00, 0x00, 0x00, };
