#define volume1.2x_width 16
#define volume1.2x_height 16
static char volume1.2x_bits[] = {
  0x00, 0x00, 0x00, 0x00, 0x00, 0x01, 0x80, 0x01, 0xC0, 0x01, 0xFC, 0x01, 
  0xFC, 0x01, 0xFC, 0x05, 0xFC, 0x05, 0xFC, 0x01, 0xFC, 0x01, 0xC0, 0x01, 
  0x80, 0x01, 0x00, 0x01, 0x00, 0x00, 0x00, 0x00, };
