#define volume8.2x_width 16
#define volume8.2x_height 16
static char volume8.2x_bits[] = {
  0x00, 0x00, 0x00, 0x08, 0x00, 0x11, 0x80, 0x21, 0xC0, 0x49, 0xFC, 0x51, 
  0xFC, 0x55, 0xFC, 0x55, 0xFC, 0x55, 0xFC, 0x55, 0xFC, 0x51, 0xC0, 0x49, 
  0x80, 0x21, 0x00, 0x11, 0x00, 0x08, 0x00, 0x00, };
