/* XPM */
static char *volume8_2x_xbm[] = {
/* columns rows colors chars-per-pixel */
"16 16 2 1 ",
"  c None",
". c #c0c5ce",
/* pixels */
"                ",
"           .    ",
"        .   .   ",
"       ..    .  ",
"      ...  .  . ",
"  .......   . . ",
"  ....... . . . ",
"  ....... . . . ",
"  ....... . . . ",
"  ....... . . . ",
"  .......   . . ",
"      ...  .  . ",
"       ..    .  ",
"        .   .   ",
"           .    ",
"                "
};
